<mxfile host="app.diagrams.net" modified="2023-08-28T18:54:48.158Z" agent="Mozilla/5.0 (Windows NT 10.0; Win64; x64) AppleWebKit/537.36 (KHTML, like Gecko) Chrome/116.0.0.0 Safari/537.36" etag="4AT_egUZRIJXi4O0Mnia" version="21.6.9" type="github">
  <diagram name="Page-1" id="PTABcKrmiiCSXqkkIokz">
    <mxGraphModel dx="2074" dy="1156" grid="1" gridSize="10" guides="1" tooltips="1" connect="1" arrows="1" fold="1" page="1" pageScale="1" pageWidth="850" pageHeight="1100" math="0" shadow="0">
      <root>
        <mxCell id="0" />
        <mxCell id="1" parent="0" />
        <mxCell id="4A9HqpFRvoBetneBjNxX-39" value="" style="shape=flexArrow;endArrow=classic;html=1;rounded=0;strokeWidth=2;shadow=1;fillColor=#66FFFF;endWidth=21;width=30;labelBackgroundColor=#66ffff;" edge="1" parent="1">
          <mxGeometry width="50" height="50" relative="1" as="geometry">
            <mxPoint x="40" y="520" as="sourcePoint" />
            <mxPoint x="680" y="519.5" as="targetPoint" />
          </mxGeometry>
        </mxCell>
        <mxCell id="4A9HqpFRvoBetneBjNxX-41" value="&lt;b style=&quot;font-size: 12px;&quot;&gt;&lt;i style=&quot;font-size: 12px;&quot;&gt;BUS to Settings API&lt;/i&gt;&lt;/b&gt;" style="edgeLabel;html=1;align=center;verticalAlign=middle;resizable=0;points=[];labelBackgroundColor=#66FFFF;fontSize=12;labelPosition=center;verticalLabelPosition=middle;labelBorderColor=default;" vertex="1" connectable="0" parent="4A9HqpFRvoBetneBjNxX-39">
          <mxGeometry x="-0.9115" y="-5" relative="1" as="geometry">
            <mxPoint as="offset" />
          </mxGeometry>
        </mxCell>
        <mxCell id="4A9HqpFRvoBetneBjNxX-8" style="edgeStyle=orthogonalEdgeStyle;rounded=0;orthogonalLoop=1;jettySize=auto;html=1;" edge="1" parent="1" source="4A9HqpFRvoBetneBjNxX-3" target="4A9HqpFRvoBetneBjNxX-4">
          <mxGeometry relative="1" as="geometry" />
        </mxCell>
        <mxCell id="4A9HqpFRvoBetneBjNxX-9" value="" style="edgeStyle=orthogonalEdgeStyle;rounded=0;orthogonalLoop=1;jettySize=auto;html=1;" edge="1" parent="1" source="4A9HqpFRvoBetneBjNxX-3" target="4A9HqpFRvoBetneBjNxX-4">
          <mxGeometry relative="1" as="geometry" />
        </mxCell>
        <mxCell id="4A9HqpFRvoBetneBjNxX-3" value="Actor" style="shape=umlActor;verticalLabelPosition=top;verticalAlign=bottom;html=1;outlineConnect=0;labelPosition=center;align=center;" vertex="1" parent="1">
          <mxGeometry x="425" y="80" width="30" height="60" as="geometry" />
        </mxCell>
        <mxCell id="4A9HqpFRvoBetneBjNxX-4" value="Load Balancer" style="rounded=1;whiteSpace=wrap;html=1;" vertex="1" parent="1">
          <mxGeometry x="270" y="230" width="340" height="60" as="geometry" />
        </mxCell>
        <mxCell id="4A9HqpFRvoBetneBjNxX-24" style="edgeStyle=orthogonalEdgeStyle;rounded=0;orthogonalLoop=1;jettySize=auto;html=1;exitX=0.5;exitY=1;exitDx=0;exitDy=0;entryX=0.5;entryY=0;entryDx=0;entryDy=0;" edge="1" parent="1" source="4A9HqpFRvoBetneBjNxX-11" target="4A9HqpFRvoBetneBjNxX-15">
          <mxGeometry relative="1" as="geometry" />
        </mxCell>
        <mxCell id="4A9HqpFRvoBetneBjNxX-25" style="edgeStyle=orthogonalEdgeStyle;rounded=0;orthogonalLoop=1;jettySize=auto;html=1;exitX=0.5;exitY=1;exitDx=0;exitDy=0;entryX=0.5;entryY=0;entryDx=0;entryDy=0;" edge="1" parent="1" source="4A9HqpFRvoBetneBjNxX-11" target="4A9HqpFRvoBetneBjNxX-12">
          <mxGeometry relative="1" as="geometry" />
        </mxCell>
        <mxCell id="4A9HqpFRvoBetneBjNxX-26" style="edgeStyle=orthogonalEdgeStyle;rounded=0;orthogonalLoop=1;jettySize=auto;html=1;exitX=0.5;exitY=1;exitDx=0;exitDy=0;entryX=0.5;entryY=0;entryDx=0;entryDy=0;" edge="1" parent="1" source="4A9HqpFRvoBetneBjNxX-11" target="4A9HqpFRvoBetneBjNxX-17">
          <mxGeometry relative="1" as="geometry" />
        </mxCell>
        <mxCell id="4A9HqpFRvoBetneBjNxX-35" style="edgeStyle=orthogonalEdgeStyle;rounded=0;orthogonalLoop=1;jettySize=auto;html=1;exitX=0.5;exitY=1;exitDx=0;exitDy=0;entryX=0.5;entryY=0;entryDx=0;entryDy=0;" edge="1" parent="1" source="4A9HqpFRvoBetneBjNxX-11" target="4A9HqpFRvoBetneBjNxX-30">
          <mxGeometry relative="1" as="geometry" />
        </mxCell>
        <mxCell id="4A9HqpFRvoBetneBjNxX-36" style="edgeStyle=orthogonalEdgeStyle;rounded=0;orthogonalLoop=1;jettySize=auto;html=1;exitX=0.5;exitY=1;exitDx=0;exitDy=0;entryX=0.5;entryY=0;entryDx=0;entryDy=0;" edge="1" parent="1" source="4A9HqpFRvoBetneBjNxX-11" target="4A9HqpFRvoBetneBjNxX-31">
          <mxGeometry relative="1" as="geometry" />
        </mxCell>
        <mxCell id="4A9HqpFRvoBetneBjNxX-11" value="React Web Page" style="rounded=0;whiteSpace=wrap;html=1;fillColor=#fad9d5;strokeColor=#ae4132;fontStyle=1" vertex="1" parent="1">
          <mxGeometry x="290" y="350" width="190" height="90" as="geometry" />
        </mxCell>
        <mxCell id="4A9HqpFRvoBetneBjNxX-14" style="edgeStyle=orthogonalEdgeStyle;rounded=0;orthogonalLoop=1;jettySize=auto;html=1;" edge="1" parent="1" source="4A9HqpFRvoBetneBjNxX-12" target="4A9HqpFRvoBetneBjNxX-13">
          <mxGeometry relative="1" as="geometry" />
        </mxCell>
        <mxCell id="4A9HqpFRvoBetneBjNxX-34" style="edgeStyle=orthogonalEdgeStyle;rounded=0;orthogonalLoop=1;jettySize=auto;html=1;exitX=0;exitY=0.5;exitDx=0;exitDy=0;entryX=1;entryY=0.5;entryDx=0;entryDy=0;" edge="1" parent="1" source="4A9HqpFRvoBetneBjNxX-12" target="4A9HqpFRvoBetneBjNxX-31">
          <mxGeometry relative="1" as="geometry" />
        </mxCell>
        <mxCell id="4A9HqpFRvoBetneBjNxX-12" value="Book API" style="whiteSpace=wrap;html=1;aspect=fixed;fillColor=#fad7ac;strokeColor=#b46504;fontStyle=1" vertex="1" parent="1">
          <mxGeometry x="240" y="480" width="80" height="80" as="geometry" />
        </mxCell>
        <mxCell id="4A9HqpFRvoBetneBjNxX-13" value="Book DB" style="shape=cylinder3;whiteSpace=wrap;html=1;boundedLbl=1;backgroundOutline=1;size=15;fillColor=#b1ddf0;strokeColor=#10739e;" vertex="1" parent="1">
          <mxGeometry x="250" y="580" width="60" height="80" as="geometry" />
        </mxCell>
        <mxCell id="4A9HqpFRvoBetneBjNxX-19" style="edgeStyle=orthogonalEdgeStyle;rounded=0;orthogonalLoop=1;jettySize=auto;html=1;exitX=0.5;exitY=1;exitDx=0;exitDy=0;entryX=0.5;entryY=0;entryDx=0;entryDy=0;entryPerimeter=0;" edge="1" parent="1" source="4A9HqpFRvoBetneBjNxX-15" target="4A9HqpFRvoBetneBjNxX-16">
          <mxGeometry relative="1" as="geometry" />
        </mxCell>
        <mxCell id="4A9HqpFRvoBetneBjNxX-22" style="edgeStyle=orthogonalEdgeStyle;rounded=0;orthogonalLoop=1;jettySize=auto;html=1;exitX=0;exitY=0.5;exitDx=0;exitDy=0;entryX=1;entryY=0.5;entryDx=0;entryDy=0;" edge="1" parent="1" source="4A9HqpFRvoBetneBjNxX-15" target="4A9HqpFRvoBetneBjNxX-12">
          <mxGeometry relative="1" as="geometry" />
        </mxCell>
        <mxCell id="4A9HqpFRvoBetneBjNxX-23" style="edgeStyle=orthogonalEdgeStyle;rounded=0;orthogonalLoop=1;jettySize=auto;html=1;exitX=1;exitY=0.5;exitDx=0;exitDy=0;entryX=0;entryY=0.5;entryDx=0;entryDy=0;" edge="1" parent="1" source="4A9HqpFRvoBetneBjNxX-15" target="4A9HqpFRvoBetneBjNxX-17">
          <mxGeometry relative="1" as="geometry" />
        </mxCell>
        <mxCell id="4A9HqpFRvoBetneBjNxX-15" value="" style="whiteSpace=wrap;html=1;aspect=fixed;fillColor=#fad7ac;strokeColor=#b46504;" vertex="1" parent="1">
          <mxGeometry x="345" y="480" width="80" height="80" as="geometry" />
        </mxCell>
        <mxCell id="4A9HqpFRvoBetneBjNxX-16" value="Circulation DB" style="shape=cylinder3;whiteSpace=wrap;html=1;boundedLbl=1;backgroundOutline=1;size=15;fillColor=#b1ddf0;strokeColor=#10739e;" vertex="1" parent="1">
          <mxGeometry x="355" y="580" width="60" height="80" as="geometry" />
        </mxCell>
        <mxCell id="4A9HqpFRvoBetneBjNxX-20" style="edgeStyle=orthogonalEdgeStyle;rounded=0;orthogonalLoop=1;jettySize=auto;html=1;exitX=0.5;exitY=1;exitDx=0;exitDy=0;" edge="1" parent="1" source="4A9HqpFRvoBetneBjNxX-17" target="4A9HqpFRvoBetneBjNxX-18">
          <mxGeometry relative="1" as="geometry" />
        </mxCell>
        <mxCell id="4A9HqpFRvoBetneBjNxX-17" value="Patron API" style="whiteSpace=wrap;html=1;aspect=fixed;fontStyle=1;fillColor=#fad7ac;strokeColor=#b46504;" vertex="1" parent="1">
          <mxGeometry x="455" y="480" width="80" height="80" as="geometry" />
        </mxCell>
        <mxCell id="4A9HqpFRvoBetneBjNxX-18" value="Patron DB" style="shape=cylinder3;whiteSpace=wrap;html=1;boundedLbl=1;backgroundOutline=1;size=15;fillColor=#b1ddf0;strokeColor=#10739e;" vertex="1" parent="1">
          <mxGeometry x="465" y="580" width="60" height="80" as="geometry" />
        </mxCell>
        <mxCell id="4A9HqpFRvoBetneBjNxX-21" value="Circulation API" style="text;html=1;strokeColor=none;fillColor=none;align=center;verticalAlign=middle;whiteSpace=wrap;rounded=0;fontStyle=1" vertex="1" parent="1">
          <mxGeometry x="355" y="505" width="60" height="30" as="geometry" />
        </mxCell>
        <mxCell id="4A9HqpFRvoBetneBjNxX-27" style="edgeStyle=orthogonalEdgeStyle;rounded=0;orthogonalLoop=1;jettySize=auto;html=1;" edge="1" parent="1" source="4A9HqpFRvoBetneBjNxX-28" target="4A9HqpFRvoBetneBjNxX-29">
          <mxGeometry relative="1" as="geometry" />
        </mxCell>
        <mxCell id="4A9HqpFRvoBetneBjNxX-28" value="Library Settings API" style="whiteSpace=wrap;html=1;aspect=fixed;fontStyle=1;fillColor=#fad7ac;strokeColor=#b46504;" vertex="1" parent="1">
          <mxGeometry x="680" y="480" width="80" height="80" as="geometry" />
        </mxCell>
        <mxCell id="4A9HqpFRvoBetneBjNxX-29" value="Settings DB" style="shape=cylinder3;whiteSpace=wrap;html=1;boundedLbl=1;backgroundOutline=1;size=15;fillColor=#b1ddf0;strokeColor=#10739e;" vertex="1" parent="1">
          <mxGeometry x="690" y="580" width="60" height="80" as="geometry" />
        </mxCell>
        <mxCell id="4A9HqpFRvoBetneBjNxX-30" value="ZServer API Wrapper" style="whiteSpace=wrap;html=1;aspect=fixed;fontStyle=1;fillColor=#fad7ac;strokeColor=#b46504;" vertex="1" parent="1">
          <mxGeometry x="560" y="480" width="80" height="80" as="geometry" />
        </mxCell>
        <mxCell id="4A9HqpFRvoBetneBjNxX-37" style="edgeStyle=orthogonalEdgeStyle;rounded=0;orthogonalLoop=1;jettySize=auto;html=1;exitX=0.5;exitY=1;exitDx=0;exitDy=0;entryX=0.5;entryY=0;entryDx=0;entryDy=0;entryPerimeter=0;" edge="1" parent="1" source="4A9HqpFRvoBetneBjNxX-31" target="4A9HqpFRvoBetneBjNxX-32">
          <mxGeometry relative="1" as="geometry" />
        </mxCell>
        <mxCell id="4A9HqpFRvoBetneBjNxX-31" value="MARC API" style="whiteSpace=wrap;html=1;aspect=fixed;fillColor=#fad7ac;strokeColor=#b46504;fontStyle=1" vertex="1" parent="1">
          <mxGeometry x="130" y="480" width="80" height="80" as="geometry" />
        </mxCell>
        <mxCell id="4A9HqpFRvoBetneBjNxX-32" value="MARC DB" style="shape=cylinder3;whiteSpace=wrap;html=1;boundedLbl=1;backgroundOutline=1;size=15;fillColor=#b1ddf0;strokeColor=#10739e;" vertex="1" parent="1">
          <mxGeometry x="140" y="580" width="60" height="80" as="geometry" />
        </mxCell>
      </root>
    </mxGraphModel>
  </diagram>
</mxfile>
